Coordinates
version=1
nRows=20
nColumns=34
inDegrees=yes

Units are S.I. units (second, meters, Newtons, ...)
If the header above contains a line with 'inDegrees', this indicates whether rotational values are in degrees (yes) or radians (no).

endheader
time	pelvis_tilt	pelvis_list	pelvis_rotation	pelvis_tx	pelvis_ty	pelvis_tz	hip_flexion_r	hip_adduction_r	hip_rotation_r	knee_angle_r	ankle_angle_r	subtalar_angle_r	mtp_angle_r	hip_flexion_l	hip_adduction_l	hip_rotation_l	knee_angle_l	ankle_angle_l	subtalar_angle_l	mtp_angle_l	lumbar_extension	lumbar_bending	lumbar_rotation	arm_flex_r	arm_add_r	arm_rot_r	elbow_flex_r	pro_sup_r	arm_flex_l	arm_add_l	arm_rot_l	elbow_flex_l	pro_sup_l
      1.88333330	      0.78992418	     -2.85319958	    -34.26148533	      1.22416531	      1.01567041	      3.67448751	     33.29390052	      0.72976780	     -1.24200886	     40.49836124	      1.34084502	     -9.05985959	      0.00000000	      3.32929932	     14.07210711	     10.79512455	      2.40711841	      2.16791496	    -17.11897088	      0.00000000	    -11.86291572	     -9.82275310	     63.09914032	     39.20317709	     13.40275781	      6.22841988	     35.97796178	    119.74817918	     -3.84264007	     25.72708383	     62.13123485	     26.83274371	     97.90627207
      1.90000000	      0.40678683	     -2.67522318	    -34.15752669	      1.22464609	      1.01596202	      3.67534518	     32.67026666	      0.77906023	     -2.63625509	     38.01832480	      0.81272225	     -9.00674642	      0.00000000	      3.24710287	     13.87757036	     10.68120531	      1.49437141	      1.46400841	    -16.63234130	      0.00000000	    -11.60403813	     -9.72592110	     62.61792656	     38.27739624	     13.66701481	      7.11074235	     37.26374401	    119.74817918	     -3.33858428	     25.59700510	     62.08144720	     29.10250011	     97.91919618
      1.91666670	      0.29235413	     -3.23773978	    -33.61752658	      1.22577314	      1.01713886	      3.67565392	     30.82285380	      1.13751889	     -4.52467307	     34.99101155	      1.04899990	     -8.61471115	      0.00000000	      2.65163868	     13.25567241	     11.36447598	      1.14497143	      1.77624598	    -16.17455699	      0.00000000	    -12.14538810	     -8.87356581	     62.20667697	     37.23825734	     13.56569284	      8.18701040	     39.21136815	    119.74817918	     -3.17502127	     25.86353878	     61.99873699	     31.16333904	     97.97351534
      1.93333330	      0.42066014	     -3.52912018	    -33.04645375	      1.22790193	      1.01790415	      3.67629569	     28.99214230	      1.18845639	     -5.99185920	     32.25007484	      1.33970469	     -8.95523672	      0.00000000	      2.29298922	     13.10226928	     11.75590216	      1.44020501	      1.98188127	    -15.94972183	      0.00000000	    -12.59105117	     -8.24844409	     62.54351287	     35.91093481	     13.54842774	      7.21300160	     41.16896986	    119.74817918	     -3.63133172	     25.69152186	     61.43983046	     33.50253414	     98.09288955
      1.95000000	      0.95793541	     -3.57312555	    -32.32212729	      1.22973486	      1.01806437	      3.67710513	     27.28195896	      0.81404492	     -7.37449919	     30.24101204	      1.12742749	    -10.41078316	      0.00000000	      2.04250985	     13.45009377	     12.30556400	      2.40537553	      2.62517075	    -15.89940374	      0.00000000	    -13.21165688	     -8.06116973	     63.04339063	     34.65193293	     13.64697707	      5.54945040	     43.08376567	    119.69675513	     -3.94732644	     25.44137656	     60.63854912	     36.12605229	     98.22327307
      1.96666670	      1.43833988	     -3.47613289	    -31.33289491	      1.23027766	      1.01791231	      3.67698675	     25.93279836	      0.29959309	     -8.70933333	     28.64337695	      0.49954590	    -12.03487840	      0.00000000	      1.92134623	     13.85473221	     12.86402113	      3.21114362	      2.99143478	    -15.64502645	      0.00000000	    -13.93841516	     -7.95959909	     62.97494514	     33.83592711	     13.64401485	      3.92778216	     44.76757379	    119.65496591	     -3.94525195	     25.79739145	     60.33947143	     38.12829886	     98.40999724
      1.98333330	      1.62382789	     -2.89423139	    -30.84558623	      1.22923663	      1.01732908	      3.67789513	     25.21222098	     -0.28222173	    -10.00472982	     27.18512960	     -0.13702266	    -12.63260484	      0.00000000	      2.32009141	     14.43966058	     12.70037529	      3.68920962	      2.71330395	    -15.59825136	      0.00000000	    -14.22820680	     -8.49975488	     62.47986165	     33.53445412	     13.53250610	      3.88048881	     46.56925667	    119.69923553	     -3.32858024	     26.35056299	     59.96403240	     39.68382872	     98.46780343
      2.00000000	      1.42300935	     -2.57485886	    -29.79484080	      1.22976322	      1.01662444	      3.67885566	     24.20386752	     -0.53453738	    -11.71591562	     25.29229486	     -0.43587897	    -13.63318516	      0.00000000	      2.94225539	     14.65968555	     13.31562942	      4.58634662	      3.34398367	    -15.46262402	      0.00000000	    -14.15043739	     -8.68675626	     61.51176793	     33.02901958	     13.53726764	      3.94237871	     48.61612276	    119.73124029	     -2.96914650	     26.68964524	     59.21666393	     41.15560163	     98.53801996
      2.01666670	      1.22908301	     -2.67421747	    -28.56055908	      1.23103030	      1.01704842	      3.68053273	     22.84098665	     -0.27239697	    -12.72556138	     23.45750506	     -0.81708743	    -14.75990346	      0.00000000	      3.56442006	     14.56162106	     13.90416059	      6.11602416	      3.93537550	    -15.65483147	      0.00000000	    -14.24011646	     -8.57442519	     60.69870960	     32.70511322	     13.45946112	      3.85744366	     49.99964908	    119.68878441	     -2.86069657	     26.70134479	     59.04418577	     42.19015128	     98.68622552
      2.03333330	      1.20086792	     -2.56215458	    -27.74192539	      1.23268857	      1.01779671	      3.68357978	     21.79419363	     -0.05166447	    -12.59799544	     22.71806485	     -0.31391881	    -15.93192477	      0.00000000	      4.02595980	     14.69000039	     14.12676578	      7.40235530	      4.11794171	    -16.10328985	      0.00000000	    -14.24042387	     -8.83315194	     60.42975206	     32.37657035	     13.05364952	      4.05107503	     51.27521426	    119.69701045	     -2.77759026	     26.62662748	     58.67470063	     42.64358406	     98.70464693
      2.05000000	      0.89782939	     -3.02728647	    -27.01844576	      1.23559658	      1.01866157	      3.68704694	     20.50487122	      0.76771405	    -13.51283102	     21.61044532	     -1.17797289	    -18.76557105	      0.00000000	      4.44966678	     14.22526513	     15.06793653	      8.90882940	      4.79298128	    -17.15836509	      0.00000000	    -13.99208544	     -8.43098898	     60.25170637	     31.72114719	     12.58831620	      4.93822972	     52.44976915	    119.71490211	     -3.12473352	     26.36314199	     58.17370767	     43.01692538	     98.80554728
      2.06666670	      0.54341250	     -3.72130323	    -27.28757240	      1.23755359	      1.01926342	      3.69051097	     19.45741653	      1.98888701	    -13.95723693	     20.26548078	     -1.00822444	    -20.06954601	      0.00000000	      4.97766969	     13.49057682	     14.83086963	     10.34590749	      5.19692447	    -18.54547375	      0.00000000	    -13.86088030	     -7.71915385	     61.19169474	     31.44803481	     11.97841316	      5.28876576	     52.81234954	    119.72982478	     -3.52272742	     26.35149344	     58.14176274	     42.83345698	     98.86993225
      2.08333330	      0.55265917	     -4.47436397	    -27.58114937	      1.24079164	      1.01933050	      3.69286336	     18.50028449	      2.78912022	    -14.42315637	     19.76698135	     -1.09049320	    -20.73337934	      0.00000000	      5.12579005	     13.00205386	     14.14319710	     11.86520497	      5.89449782	    -19.82908893	      0.00000000	    -13.82139721	     -6.94460768	     61.71060144	     31.08107835	     11.65590809	      5.89723642	     52.96763802	    119.74500076	     -4.09865145	     26.10841484	     58.97991006	     42.15611251	     98.96429846
      2.10000000	      0.56367936	     -5.18584302	    -28.02126046	      1.24160087	      1.01887525	      3.69421576	     18.08389922	      3.38198255	    -15.07577030	     19.94263342	     -1.31962413	    -20.62935394	      0.00000000	      5.61507446	     12.57514629	     12.87684863	     13.57016499	      6.32222378	    -21.21630561	      0.00000000	    -14.08427441	     -6.25062762	     62.28659137	     31.06664403	     11.28636170	      6.47479221	     52.82102781	    119.74817115	     -4.44720040	     26.13987908	     59.67561921	     40.96640079	     98.97634474
      2.11666670	      0.52823463	     -5.79823642	    -28.71773735	      1.24138897	      1.01855785	      3.69568659	     17.78233453	      3.96790396	    -15.56620265	     20.07013528	     -1.19048139	    -20.07445135	      0.00000000	      6.45948990	     12.13993509	     11.50142250	     15.60082777	      6.53534272	    -22.67636871	      0.00000000	    -14.23192836	     -5.63434548	     62.94555093	     30.93413590	     10.97542062	      7.07784706	     52.25298512	    119.74817918	     -4.60849775	     26.15460389	     59.96594905	     39.42505827	     98.89483617
      2.13333330	      0.49419077	     -6.24427326	    -29.51468332	      1.24118836	      1.01832701	      3.69679958	     17.62706404	      4.40255306	    -15.90575795	     20.28861149	     -0.93022140	    -19.53993411	      0.00000000	      7.42726412	     11.77863885	      9.79781856	     17.64016830	      6.39296090	    -23.78326402	      0.00000000	    -14.31614684	     -5.17645250	     63.43270470	     30.81081255	     10.85118036	      7.78286461	     51.27687175	    119.74817918	     -4.69412747	     26.13777268	     60.41484877	     37.72058349	     98.80441053
      2.15000000	      0.14157705	     -6.42737069	    -30.02203340	      1.24079133	      1.01722390	      3.69777711	     17.92659474	      4.76663612	    -16.22699096	     20.46307943	     -0.48573210	    -18.93631177	      0.00000000	      9.01529943	     11.43154588	      7.67692358	     20.00489337	      6.46191436	    -24.42763130	      0.00000000	    -14.06277116	     -4.83195520	     64.03064515	     31.07355859	     10.30080354	      8.52735425	     49.97183426	    119.74817918	     -4.68054400	     25.95506324	     61.10527759	     35.54421384	     98.67731080
      2.16666670	     -0.47359285	     -6.40534844	    -30.42480888	      1.24020262	      1.01535786	      3.69833743	     18.72790906	      5.06339772	    -16.47024550	     20.85072730	     -0.15963596	    -18.75826720	      0.00000000	     11.29092885	     11.07173630	      5.38119287	     23.10476135	      7.20871730	    -23.93742396	      0.00000000	    -13.46396208	     -4.54195528	     64.39014450	     31.36408767	     10.05466456	      9.50516158	     48.65231105	    119.74817918	     -4.81789145	     25.72535699	     62.24913667	     33.50415653	     98.48881769
      2.18333330	     -1.16151206	     -6.37905003	    -30.74030251	      1.23891178	      1.01363122	      3.70023079	     19.33727252	      5.56806715	    -16.80291420	     20.69280935	     -0.01954123	    -18.44239875	      0.00000000	     13.55797565	     10.29672585	      2.00763451	     26.70641278	      8.98094348	    -21.53792557	      0.00000000	    -12.85735567	     -4.24369200	     64.67242793	     32.04328219	      9.93985365	      9.98251173	     47.10540142	    119.74817918	     -4.82952398	     25.49052627	     63.26246254	     31.08745762	     98.20024723
      2.20000000	     -1.43539246	     -6.27342749	    -30.89205268	      1.23759556	      1.01272776	      3.70130627	     19.65422273	      5.69165360	    -17.07374411	     20.62386868	      0.06640050	    -18.22915662	      0.00000000	     15.17805089	      9.95417248	     -0.32455681	     29.79573776	     10.34316533	    -19.05655016	      0.00000000	    -12.53815302	     -4.20568709	     64.43680296	     32.86707282	      9.69047225	     10.75254513	     45.30589513	    119.74817918	     -4.77726338	     25.24524434	     64.05594316	     28.57198528	     97.85691378
